<svg id="Ebene_1" data-name="Ebene 1" xmlns="http://www.w3.org/2000/svg" viewBox="0 0 100 100"><defs><style>.cls-1{fill:none;stroke:#f5f5f5;}.cls-2{fill:#f5f5f5;}</style></defs><rect class="cls-1" x="0.5" y="0.5" width="99" height="99"/><path class="cls-2" d="M33.51,75V23.81H50.25q8.32,0,12.51,3.45T67,37.45a10.51,10.51,0,0,1-2,6.37,13.37,13.37,0,0,1-5.55,4.25,11.78,11.78,0,0,1,6.54,4.43,12.56,12.56,0,0,1,2.42,7.73q0,6.9-4.46,10.83T51.27,75Zm6.75-23.94V69.48H51.41a10.67,10.67,0,0,0,7.41-2.43,8.61,8.61,0,0,0,2.75-6.75q0-9.24-10.06-9.24Zm0-5.42h10.2a10.58,10.58,0,0,0,7.06-2.21,7.41,7.41,0,0,0,2.68-6q0-4.22-2.47-6.12t-7.48-1.93h-10Z"/></svg>